<?xml version="1.0" encoding="utf-8"?>
<!-- Generator: Adobe Illustrator 19.0.0, SVG Export Plug-In . SVG Version: 6.00 Build 0)  -->
<svg version="1.1" id="Layer_1" xmlns="http://www.w3.org/2000/svg" xmlns:xlink="http://www.w3.org/1999/xlink" x="0px" y="0px"
	 viewBox="0 0 460 420" style="enable-background:new 0 0 460 420;" xml:space="preserve">
<style type="text/css">
	.st0{fill:#010101;}
</style>
<path class="st0" d="M120,0 M0,0v120v100v170c0,16.4,0,30,0,30h430c16.5,0,30,0,30,0V220V120V70c0-16.5,0-30,0-30H160V0H0z
	 M440,91.9L20,90 M20,20h120v40h20h280c0,0,0,4.4,0,10v21.9H20V20z M160,20 M20,400V220V110h420v110v180"/>
</svg>
